# xmcd
#
# Track frame offsets:
#	150
#	5636
#	29188
#	45482
#	66489
#	86981
#	90964
#	115395
#	137786
#	154842
#	172482
#	178331
#	199276
#	216389
#	238610
#	259068
#
# Disc length: 3633 seconds
# Revision: 2
# Processed by: cddbd v1.5.2PL0 Copyright (c) Steve Scherf et al.
# Submitted via: dBpowerAMP V12.0
#
DISCID=fb0e2f10
DTITLE=MarshaAmbrosius,Liverpool,England,UK - Friends and Lovers
DYEAR=2014
DGENRE=Soul
TTITLE0=Friends and Lovers Intro
TTITLE1=So Good
TTITLE2=Night Time
TTITLE3=69
TTITLE4=Shoes
TTITLE5=How Much More (interlude)
TTITLE6=Stronger ft Dr Dre
TTITLE7=You and I
TTITLE8=La La La La La
TTITLE9=Cupid (Shot Me Straight Through My Heart)
TTITLE10=Kiss and F**k (interlude)
TTITLE11=Love
TTITLE12=Run
TTITLE13=Spend All My Time ft Charlie Wilson
TTITLE14=OMG I Miss You
TTITLE15=Streets Of London ft Skye and Lindsey Sterling (Bonus Track)
EXTD=
EXTT0=
EXTT1=
EXTT2=
EXTT3=
EXTT4=
EXTT5=
EXTT6=
EXTT7=
EXTT8=
EXTT9=
EXTT10=
EXTT11=
EXTT12=
EXTT13=
EXTT14=
EXTT15=
PLAYORDER=
